<?xml version="1.0" encoding="UTF-8" standalone="no"?>
<!-- Created with Inkscape (http://www.inkscape.org/) -->

<svg
   width="500"
   height="500"
   viewBox="0 0 132.29167 132.29167"
   version="1.1"
   id="svg929"
   inkscape:version="1.1.1 (3bf5ae0d25, 2021-09-20)"
   sodipodi:docname="fav.svg"
   xmlns:inkscape="http://www.inkscape.org/namespaces/inkscape"
   xmlns:sodipodi="http://sodipodi.sourceforge.net/DTD/sodipodi-0.dtd"
   xmlns="http://www.w3.org/2000/svg"
   xmlns:svg="http://www.w3.org/2000/svg">
  <sodipodi:namedview
     id="namedview931"
     pagecolor="#ffffff"
     bordercolor="#666666"
     borderopacity="1.0"
     inkscape:pageshadow="2"
     inkscape:pageopacity="0.0"
     inkscape:pagecheckerboard="0"
     inkscape:document-units="mm"
     showgrid="false"
     units="px"
     inkscape:zoom="0.4069336"
     inkscape:cx="860.09117"
     inkscape:cy="560.28796"
     inkscape:window-width="1395"
     inkscape:window-height="870"
     inkscape:window-x="45"
     inkscape:window-y="0"
     inkscape:window-maximized="1"
     inkscape:current-layer="layer1" />
  <defs
     id="defs926" />
  <g
     inkscape:label="Camada 1"
     inkscape:groupmode="layer"
     id="layer1">
    <g
       id="g66"
       transform="matrix(0.6634705,0,0,0.6634705,4.4381285,5.3449651)">
      <path
         style="fill:#fdd633"
         d="m 92.846,7.102 c 0,-0.005 0,-0.01 0,-0.015 0,0.005 0,0.01 0,0.015 z"
         id="path2" />
      <path
         style="fill:#fdd633"
         d="m 90.036,6.163 c 0.141,-0.328 0.302,-0.654 0.481,-0.979 -0.178,0.324 -0.34,0.651 -0.481,0.979 z"
         id="path4" />
      <path
         style="fill:#fdd633"
         d="M 93.072,5.293 C 93.708,2.477 95.436,0 95.436,0 94.545,0.61 93.76,1.248 93.073,1.905 v 3.38 c -10e-4,0.003 -10e-4,0.006 -10e-4,0.008 z"
         id="path6" />
      <path
         style="fill:#fdd633"
         d="M 92.176,2.845 C 92.455,2.529 92.75,2.214 93.072,1.905 92.75,2.214 92.456,2.528 92.176,2.845 Z"
         id="path8" />
      <path
         style="fill:#fdd633"
         d="M 90.629,4.987 C 90.807,4.675 91,4.365 91.215,4.058 91,4.365 90.807,4.675 90.629,4.987 Z"
         id="path10" />
      <path
         style="fill:#fdd633"
         d="m 91.545,16.619 c 0.452,0.574 0.961,1.113 1.522,1.61 -0.561,-0.497 -1.071,-1.036 -1.522,-1.61 z"
         id="path12" />
      <path
         style="fill:#fdd633"
         d="M 91.254,4 C 91.482,3.679 91.735,3.361 92.003,3.045 91.734,3.36 91.481,3.678 91.254,4 Z"
         id="path14" />
      <path
         style="fill:#fdd633"
         d="M 92.915,6.17 C 92.913,6.184 92.912,6.198 92.91,6.212 92.912,6.198 92.913,6.184 92.915,6.17 Z"
         id="path16" />
      <path
         style="fill:#fdd633"
         d="m 90.71,186.146 c 0,0 0.011,-0.016 0.027,-0.039 -0.009,0.013 -0.027,0.039 -0.027,0.039 z"
         id="path18" />
      <path
         style="fill:#fdd633"
         d="m 91.845,166.953 c 0.429,0.297 0.836,0.615 1.219,0.953 -0.383,-0.338 -0.79,-0.657 -1.219,-0.953 z"
         id="path20" />
      <path
         style="fill:#fdd633"
         d="m 91.83,185.314 c -0.355,0.281 -0.724,0.561 -1.121,0.832 0.397,-0.272 0.766,-0.551 1.121,-0.832 z"
         id="path22" />
      <path
         style="fill:#fdd633"
         d="m 93.068,177.257 c 0.343,1.157 0.277,2.41 0.005,3.607 v 3.376 c -0.304,0.291 -0.635,0.576 -0.978,0.859 6.803,-5.597 5.777,-12.947 0.978,-17.186 v 9.357 c -10e-4,-0.004 -0.003,-0.008 -0.005,-0.013 z"
         id="path24" />
      <path
         style="fill:#fdd633"
         d="m 90.456,166.113 c 0.479,0.251 0.936,0.527 1.37,0.827 -0.436,-0.3 -0.892,-0.577 -1.37,-0.827 z"
         id="path26" />
      <path
         style="fill:#fdd633"
         d="m 90.686,148.177 c -0.182,0.212 -0.361,0.424 -0.553,0.632 0.193,-0.208 0.37,-0.42 0.553,-0.632 z"
         id="path28" />
      <path
         style="fill:#fdd633"
         d="M 89.37,8.36 C 89.431,8.029 89.51,7.697 89.606,7.365 89.51,7.698 89.431,8.029 89.37,8.36 Z"
         id="path30" />
      <path
         style="fill:#fdd633"
         d="m 91.51,16.573 c -0.439,-0.563 -0.821,-1.159 -1.142,-1.781 0.321,0.622 0.703,1.218 1.142,1.781 z"
         id="path32" />
      <path
         style="fill:#fdd633"
         d="m 89.549,12.681 c -0.173,-0.646 -0.281,-1.308 -0.321,-1.981 0.04,0.673 0.148,1.335 0.321,1.981 z"
         id="path34" />
      <path
         style="fill:#fdd633"
         d="M 90.785,186.035 Z"
         id="path36" />
      <path
         style="fill:#fdd633"
         d="m 90.325,14.707 c -0.309,-0.612 -0.558,-1.248 -0.742,-1.902 0.184,0.655 0.433,1.29 0.742,1.902 z"
         id="path38" />
      <path
         style="fill:#fdd633"
         d="m 92.706,176.374 c -0.065,-0.125 -0.133,-0.249 -0.21,-0.37 0.078,0.122 0.144,0.245 0.21,0.37 z"
         id="path40" />
      <path
         style="fill:#fdd633"
         d="m 92.31,175.735 c -0.165,-0.222 -0.345,-0.438 -0.562,-0.642 0.217,0.203 0.395,0.421 0.562,0.642 z"
         id="path42" />
      <path
         style="fill:#fdd633"
         d="m 89.234,9.445 c 0.021,-0.309 0.059,-0.619 0.111,-0.93 -0.051,0.312 -0.089,0.622 -0.111,0.93 z"
         id="path44" />
      <path
         style="fill:#fdd633"
         d="m 93.072,144.97 c -0.225,0.357 -0.469,0.711 -0.715,1.064 0.248,-0.354 0.49,-0.707 0.715,-1.064 z"
         id="path46" />
      <path
         style="fill:#fdd633"
         d="m 92.001,146.535 c -0.211,0.289 -0.432,0.575 -0.659,0.86 0.229,-0.285 0.447,-0.571 0.659,-0.86 z"
         id="path48" />
      <path
         style="fill:#fdd633"
         d="M 89.658,7.2 C 89.752,6.896 89.861,6.592 89.986,6.289 89.861,6.592 89.753,6.896 89.658,7.2 Z"
         id="path50" />
      <path
         style="fill:#fdd633"
         d="m 164.548,108.336 c -4.741,6.145 -9.624,8.825 -15.949,-1.058 -1.613,-2.521 -3.551,-4.549 -5.539,-6.175 0.399,-2.514 0.615,-5.088 0.632,-7.709 4.806,2.293 8.556,5.933 15.997,4.619 9.526,-1.678 11.352,-13.223 14.388,-17.876 3.039,-4.651 11.065,-0.897 11.065,-0.897 -8.127,-8.296 -17.202,-4.074 -19.685,3.729 -2.354,7.397 -6.026,11.586 -15.349,4.462 -2.38,-1.819 -4.896,-3.063 -7.322,-3.91 -0.488,-2.559 -1.167,-5.051 -2.025,-7.458 5.295,0.514 10.063,2.647 16.6,-1.13 8.379,-4.835 6.146,-16.309 7.406,-21.72 1.265,-5.41 10.091,-4.629 10.091,-4.629 -10.474,-5.016 -17.558,2.057 -17.222,10.238 0.318,7.756 -1.7,12.947 -12.897,9.441 -2.857,-0.895 -5.645,-1.203 -8.214,-1.17 -1.331,-2.22 -2.822,-4.33 -4.466,-6.313 5.154,-1.331 10.366,-0.954 15.22,-6.742 6.22,-7.409 0.197,-17.427 -0.469,-22.943 -0.661,-5.515 7.899,-7.8 7.899,-7.8 -11.558,-1.132 -15.796,7.938 -12.682,15.511 2.952,7.179 2.831,12.748 -8.891,13.282 -2.994,0.137 -5.719,0.804 -8.124,1.716 -1.996,-1.626 -4.122,-3.098 -6.354,-4.408 4.39,-3.014 9.417,-4.441 12,-11.542 3.311,-9.089 -5.775,-16.443 -8.287,-21.399 -2.509,-4.957 4.754,-10.032 4.754,-10.032 -11.247,2.889 -12.128,12.861 -6.611,18.913 5.229,5.737 7.021,11.012 -3.813,15.523 -2.764,1.151 -5.099,2.708 -7.046,4.385 -2.415,-0.837 -4.914,-1.494 -7.481,-1.961 3.095,-4.335 7.332,-7.396 7.332,-14.955 0,-9.671 -11.053,-13.472 -15.107,-17.272 -0.688,-0.644 -1.096,-1.393 -1.327,-2.184 v 0 9.363 c 0.78,0.689 1.656,1.298 2.617,1.802 6.876,3.602 10.364,7.945 1.728,15.89 -2.208,2.032 -3.871,4.296 -5.128,6.544 0.241,-0.432 0.511,-0.863 0.783,-1.292 v 10.437 0 c 22.898,0 41.462,18.563 41.462,41.459 0,22.9 -18.563,41.463 -41.462,41.463 v 0 10.433 c 0.271,-0.429 0.541,-0.858 0.781,-1.288 2.618,-0.039 5.186,-0.276 7.693,-0.699 -1.424,5.128 -4.355,9.456 -1.77,16.553 3.307,9.09 14.993,8.881 20.104,11.064 5.108,2.186 2.805,10.743 2.805,10.743 6.76,-9.445 1.026,-17.649 -7.092,-18.74 -7.692,-1.031 -12.455,-3.921 -7.058,-14.341 1.376,-2.657 2.164,-5.346 2.577,-7.882 2.426,-0.925 4.762,-2.034 6.992,-3.307 0.416,5.308 -0.86,10.376 3.997,16.16 6.217,7.413 17.127,3.22 22.676,3.523 5.549,0.307 6.311,9.135 6.311,9.135 3.121,-11.187 -5.072,-16.936 -13.072,-15.183 -7.582,1.66 -13.045,0.574 -11.538,-11.064 0.386,-2.975 0.201,-5.774 -0.28,-8.303 1.951,-1.691 3.771,-3.524 5.444,-5.491 2.209,4.848 2.739,10.05 9.285,13.827 8.377,4.839 17.196,-2.834 22.513,-4.446 5.319,-1.61 9.055,6.426 9.055,6.426 -0.893,-11.579 -10.56,-14.179 -17.477,-9.798 -6.557,4.153 -12.061,5.002 -14.626,-6.447 -0.654,-2.923 -1.78,-5.487 -3.096,-7.697 1.252,-2.239 2.342,-4.582 3.245,-7.016 3.726,3.796 6.008,8.492 13.44,9.8 9.525,1.683 15.189,-8.543 19.634,-11.877 4.448,-3.331 10.706,2.94 10.706,2.94 -4.8,-10.575 -14.771,-9.711 -19.773,-3.227 z"
         id="path52" />
      <path
         style="fill:#fdd633"
         d="m 89.219,10.548 c -0.015,-0.331 -0.014,-0.665 0.006,-0.999 -0.02,0.335 -0.02,0.668 -0.006,0.999 z"
         id="path54" />
      <path
         style="fill:#f4ca19"
         d="M 93.073,8.871 C 92.906,8.298 92.839,7.702 92.846,7.102 c 0,-0.005 0,-0.01 0,-0.015 0.004,-0.292 0.027,-0.584 0.064,-0.875 0.002,-0.014 0.003,-0.028 0.005,-0.042 0.038,-0.294 0.091,-0.587 0.157,-0.876 0,-0.003 10e-4,-0.006 10e-4,-0.009 v -3.38 0 c 0,0 0,0 -10e-4,0 -0.323,0.309 -0.617,0.623 -0.896,0.94 -0.059,0.066 -0.117,0.133 -0.174,0.2 C 91.734,3.36 91.481,3.678 91.254,4 91.24,4.02 91.229,4.039 91.215,4.058 91,4.365 90.807,4.675 90.629,4.987 90.592,5.052 90.553,5.118 90.517,5.183 90.339,5.508 90.177,5.835 90.036,6.162 90.018,6.204 90.003,6.246 89.986,6.289 89.861,6.592 89.753,6.896 89.658,7.2 89.641,7.255 89.622,7.31 89.606,7.365 89.51,7.698 89.431,8.029 89.37,8.36 c -0.009,0.052 -0.016,0.103 -0.025,0.155 -0.052,0.311 -0.09,0.621 -0.111,0.93 -0.003,0.035 -0.007,0.069 -0.009,0.104 -0.02,0.335 -0.021,0.668 -0.006,0.999 0.002,0.051 0.006,0.101 0.009,0.152 0.04,0.672 0.148,1.335 0.321,1.981 0.011,0.042 0.023,0.083 0.034,0.124 0.184,0.654 0.433,1.29 0.742,1.902 0.014,0.028 0.028,0.057 0.043,0.085 0.321,0.622 0.703,1.218 1.142,1.781 0.012,0.015 0.023,0.03 0.035,0.045 0.452,0.574 0.961,1.113 1.522,1.61 0.002,0.002 0.004,0.004 0.006,0.006 v 0 z"
         id="path56" />
      <path
         style="fill:#f4ca19"
         d="m 93.072,134.537 c -22.898,0 -41.461,-18.563 -41.461,-41.463 0,-22.896 18.562,-41.459 41.461,-41.459 h 10e-4 V 41.178 c -0.272,0.43 -0.542,0.861 -0.783,1.292 -2.618,0.04 -5.186,0.277 -7.692,0.699 1.423,-5.131 4.358,-9.457 1.775,-16.559 C 83.065,17.522 71.378,17.73 66.268,15.546 61.158,13.362 63.462,4.804 63.462,4.804 c -6.761,9.445 -1.026,17.651 7.091,18.741 7.694,1.033 12.457,3.921 7.058,14.341 -1.377,2.657 -2.164,5.349 -2.578,7.884 -2.426,0.926 -4.761,2.036 -6.991,3.307 C 67.623,43.77 68.902,38.7 64.045,32.91 57.827,25.501 46.917,29.695 41.368,29.39 35.819,29.086 35.057,20.257 35.057,20.257 31.935,31.444 40.13,37.194 48.13,35.442 c 7.583,-1.662 13.046,-0.577 11.538,11.062 -0.386,2.975 -0.202,5.777 0.279,8.307 -1.95,1.689 -3.77,3.522 -5.442,5.488 -2.209,-4.848 -2.74,-10.051 -9.286,-13.831 -8.378,-4.836 -17.195,2.837 -22.514,4.448 -5.318,1.611 -9.054,-6.424 -9.054,-6.424 0.893,11.579 10.559,14.18 17.478,9.797 6.557,-4.154 12.062,-5.004 14.625,6.449 0.653,2.921 1.782,5.487 3.096,7.697 -1.251,2.239 -2.341,4.581 -3.245,7.016 C 41.88,71.653 39.599,66.957 32.164,65.646 22.638,63.966 16.976,74.192 12.53,77.527 8.083,80.859 1.825,74.586 1.825,74.586 c 4.799,10.576 14.772,9.712 19.775,3.229 4.741,-6.146 9.623,-8.828 15.949,1.059 1.612,2.521 3.549,4.548 5.539,6.174 -0.4,2.513 -0.616,5.086 -0.632,7.709 -4.807,-2.295 -8.557,-5.936 -15.999,-4.623 -9.526,1.679 -11.349,13.225 -14.387,17.878 -3.039,4.653 -11.065,0.899 -11.065,0.899 8.126,8.295 17.204,4.073 19.687,-3.73 2.352,-7.396 6.024,-11.586 15.349,-4.461 2.379,1.818 4.894,3.063 7.32,3.91 0.489,2.558 1.167,5.049 2.025,7.457 -5.294,-0.515 -10.062,-2.647 -16.6,1.128 -8.378,4.836 -6.142,16.31 -7.405,21.722 -1.265,5.411 -10.091,4.629 -10.091,4.629 10.475,5.017 17.56,-2.056 17.224,-10.237 -0.32,-7.757 1.698,-12.948 12.898,-9.442 2.855,0.895 5.641,1.202 8.209,1.171 1.33,2.218 2.822,4.33 4.465,6.313 -5.153,1.328 -10.364,0.954 -15.219,6.74 -6.219,7.409 -0.194,17.426 0.471,22.942 0.662,5.518 -7.9,7.8 -7.9,7.8 11.558,1.133 15.798,-7.936 12.684,-15.509 -2.953,-7.18 -2.832,-12.749 8.891,-13.284 2.991,-0.137 5.715,-0.802 8.119,-1.713 1.996,1.626 4.121,3.098 6.353,4.408 -4.388,3.013 -9.415,4.442 -11.997,11.542 -3.31,9.088 5.777,16.439 8.289,21.398 2.509,4.957 -4.756,10.032 -4.756,10.032 11.249,-2.89 12.131,-12.86 6.614,-18.913 -5.23,-5.735 -7.022,-11.011 3.811,-15.523 2.762,-1.15 5.095,-2.705 7.042,-4.381 2.415,0.838 4.914,1.495 7.48,1.962 -3.093,4.333 -7.329,7.396 -7.326,14.949 -0.002,9.673 11.051,13.475 15.107,17.275 0.217,0.203 0.397,0.42 0.562,0.642 0.065,0.089 0.128,0.179 0.186,0.27 0.077,0.121 0.146,0.245 0.21,0.37 0.147,0.287 0.272,0.58 0.362,0.883 10e-4,0.005 0.003,0.009 0.005,0.014 v -9.357 -0.001 c -0.003,-0.003 -0.006,-0.005 -0.009,-0.007 -0.384,-0.338 -0.79,-0.656 -1.219,-0.953 -0.006,-0.004 -0.013,-0.009 -0.019,-0.013 -0.435,-0.3 -0.892,-0.576 -1.37,-0.827 -6.876,-3.604 -10.363,-7.946 -1.728,-15.893 0.499,-0.459 0.962,-0.932 1.405,-1.411 0.192,-0.208 0.371,-0.42 0.553,-0.632 0.224,-0.259 0.446,-0.518 0.656,-0.782 0.227,-0.285 0.448,-0.571 0.659,-0.86 0.122,-0.166 0.24,-0.333 0.356,-0.5 0.246,-0.354 0.49,-0.708 0.715,-1.064 l 0.001,-0.001 v 0 z"
         id="path58" />
      <path
         style="fill:#f4ca19"
         d="m 93.073,180.865 v 0 c -0.559,2.459 -1.948,4.656 -2.288,5.169 v 0.001 c -0.021,0.031 -0.036,0.054 -0.048,0.072 -0.016,0.023 -0.027,0.039 -0.027,0.039 0.397,-0.271 0.765,-0.551 1.121,-0.832 0.089,-0.071 0.178,-0.143 0.265,-0.214 0.343,-0.283 0.674,-0.568 0.978,-0.859 v -3.376 z"
         id="path60" />
      <path
         style="fill:#f2ab0c"
         d="m 134.535,93.074 c 0,-22.896 -18.563,-41.459 -41.462,-41.459 v 82.922 c 22.898,0 41.462,-18.563 41.462,-41.463 z"
         id="path62" />
      <path
         style="fill:#f4940b"
         d="m 51.612,93.074 c 0,22.9 18.562,41.463 41.461,41.463 h 0.001 v 0 -82.922 0 h -0.001 c -22.899,0 -41.461,18.562 -41.461,41.459 z"
         id="path64" />
    </g>
  </g>
</svg>
