<?xml version="1.0" encoding="UTF-8" standalone="no"?>
<svg
   sodipodi:docname="netjapa.svg"
   inkscape:version="1.1.2 (0a00cf5339, 2022-02-04, custom)"
   id="svg8"
   version="1.1"
   viewBox="0 0 92.604161 19.050001"
   height="72"
   width="350"
   xmlns:inkscape="http://www.inkscape.org/namespaces/inkscape"
   xmlns:sodipodi="http://sodipodi.sourceforge.net/DTD/sodipodi-0.dtd"
   xmlns="http://www.w3.org/2000/svg"
   xmlns:svg="http://www.w3.org/2000/svg"
   xmlns:rdf="http://www.w3.org/1999/02/22-rdf-syntax-ns#"
   xmlns:cc="http://creativecommons.org/ns#"
   xmlns:dc="http://purl.org/dc/elements/1.1/">
  <defs
     id="defs2" />
  <sodipodi:namedview
     inkscape:document-rotation="0"
     inkscape:pagecheckerboard="false"
     inkscape:window-maximized="1"
     inkscape:window-y="0"
     inkscape:window-x="45"
     inkscape:window-height="870"
     inkscape:window-width="1395"
     borderlayer="false"
     width="220px"
     units="px"
     showgrid="false"
     inkscape:current-layer="text1466"
     inkscape:document-units="px"
     inkscape:cy="39.814884"
     inkscape:cx="197.95811"
     inkscape:zoom="2.6874372"
     inkscape:pageshadow="2"
     inkscape:pageopacity="0.0"
     borderopacity="1.0"
     bordercolor="#666666"
     pagecolor="#ffffff"
     id="base" />
  <metadata
     id="metadata5">
    <rdf:RDF>
      <cc:Work
         rdf:about="">
        <dc:format>image/svg+xml</dc:format>
        <dc:type
           rdf:resource="http://purl.org/dc/dcmitype/StillImage" />
      </cc:Work>
    </rdf:RDF>
  </metadata>
  <g
     transform="translate(0,-291.17915)"
     id="layer1"
     inkscape:groupmode="layer"
     inkscape:label="Layer 1">
    <g
       style="font-style:italic;font-variant:normal;font-weight:500;font-stretch:normal;font-size:8.24705px;line-height:1.25;font-family:'Antique Olive T Compact';-inkscape-font-specification:'Antique Olive T Compact, Medium Italic';font-variant-ligatures:normal;font-variant-caps:normal;font-variant-numeric:normal;font-feature-settings:normal;text-align:start;letter-spacing:0px;word-spacing:0px;writing-mode:lr-tb;text-anchor:start;fill:#ff0000;fill-opacity:1;stroke:none;stroke-width:0.206178"
       id="text817"
       aria-label="NETJAPA">
      <g
         aria-label="NETJAPA"
         id="text1466"
         style="font-size:7.11197px;font-family:'Proxima Nova';-inkscape-font-specification:'Proxima Nova, Normal';font-variant-ligatures:none;fill:#ffffff;stroke-width:0.0610973">
        <rect
           style="font-variation-settings:normal;opacity:1;vector-effect:none;fill:#ffffff;fill-opacity:1;fill-rule:evenodd;stroke-width:0.539683;stroke-linecap:butt;stroke-linejoin:miter;stroke-miterlimit:4;stroke-dasharray:none;stroke-dashoffset:0;stroke-opacity:1;-inkscape-stroke:none;stop-color:#000000;stop-opacity:1"
           id="rect853"
           width="93.105125"
           height="19.367983"
           x="-0.15939848"
           y="291.19495" />
        <path
           d="m 4.6674255,296.42047 q 0.5929422,0 1.0148433,0.14816 0.4333037,0.13691 0.7639831,0.3877 0.3420819,0.23944 0.6385529,0.55873 0.2964712,0.31928 0.6271506,0.67276 l 3.5576536,3.86552 1.128869,-5.63294 h 1.470953 l -1.596382,7.97049 H 8.7267985 l -5.5759364,-6.3513 -1.2657036,6.3513 H 0.41420597 L 2.0105888,296.4204 Z"
           style="font-weight:normal;font-family:CRENZO;-inkscape-font-specification:'CRENZO Italic';fill:#ff0000;stroke-width:0.0979582"
           id="path891" />
        <path
           d="m 17.757753,297.7546 -0.638551,3.19277 q 0.307873,-0.25087 0.570138,-0.46752 0.262261,-0.22806 0.535927,-0.3877 0.273666,-0.17102 0.58154,-0.26224 0.319276,-0.10271 0.718373,-0.10271 h 5.803991 l -0.273667,1.34552 h -7.959106 l -0.387693,1.96127 h 7.377566 q 0.4105,0 0.684165,0.114 0.285068,0.11399 0.501722,0.30786 0.216651,0.18245 0.399096,0.43331 0.182442,0.23948 0.387691,0.50172 H 13.424717 l 1.596383,-7.98189 h 12.634228 q -0.319276,0.26225 -0.604345,0.5131 -0.273665,0.23949 -0.570137,0.4333 -0.296471,0.18245 -0.62715,0.29648 -0.319277,0.114 -0.729775,0.114 z"
           style="font-weight:normal;font-family:CRENZO;-inkscape-font-specification:'CRENZO Italic';fill:#ff0000;stroke-width:0.0979582"
           id="path888" />
        <path
           d="m 35.876695,297.7546 -1.322718,6.64779 h -3.010322 l 1.322717,-6.64779 H 27.17641 q 0.319276,-0.26228 0.604344,-0.50172 0.285066,-0.25086 0.570135,-0.4333 0.296473,-0.18245 0.615748,-0.28507 0.330679,-0.114 0.741179,-0.114 h 0.330679 0.148242 5.952227 5.689963 q -0.319277,0.26226 -0.604343,0.51312 -0.273667,0.23946 -0.570138,0.4219 -0.296471,0.18245 -0.62715,0.29647 -0.319277,0.10259 -0.729776,0.10259 z"
           style="font-weight:normal;font-family:CRENZO;-inkscape-font-specification:'CRENZO Italic';fill:#ff0000;stroke-width:0.0979582"
           id="path885" />
        <path
           d="m 53.30003,296.40908 -0.79819,3.99097 q -0.159643,0.82099 -0.627151,1.55075 -0.456108,0.71837 -1.106064,1.2657 -0.649956,0.54734 -1.436744,0.86661 -0.78679,0.30786 -1.607788,0.30786 h -6.077656 q -0.410497,0 -0.695566,-0.10258 -0.273665,-0.114 -0.490317,-0.29647 -0.216652,-0.19386 -0.399096,-0.43331 -0.182444,-0.25085 -0.387693,-0.51312 h 3.774305 3.261182 q 0.490316,0 0.946426,-0.21666 0.456108,-0.21664 0.832399,-0.57013 0.37629,-0.3649 0.638553,-0.8438 0.273666,-0.47892 0.37629,-1.01483 l 0.524528,-2.63406 h -7.069696 l 0.273666,-1.35689 h 2.246338 z"
           style="font-weight:normal;font-family:CRENZO;-inkscape-font-specification:'CRENZO Italic';fill:#ff0000;stroke-width:0.0979582"
           id="path882" />
        <path
           d="m 51.726423,304.41378 6.784627,-7.9819 h 3.945344 l 3.591863,7.9819 h -3.512043 l -0.843803,-1.88144 h -5.188243 l 0.775385,-0.67276 q 0.706971,-0.59294 1.53937,-0.64994 h 2.269146 l -1.527969,-3.38662 -5.461906,6.57937 z"
           style="font-weight:normal;font-family:CRENZO;-inkscape-font-specification:'CRENZO Italic';fill:#ff0000;stroke-width:0.0979582"
           id="path879" />
        <path
           d="m 76.424727,299.81849 q 0.171042,0 0.353484,-0.0571 0.193847,-0.0684 0.353487,-0.18244 0.159642,-0.11398 0.285066,-0.26224 0.125428,-0.15969 0.182444,-0.34208 0.07981,-0.27369 0.057,-0.49034 -0.0228,-0.22806 -0.136827,-0.38767 -0.102635,-0.15969 -0.285069,-0.23945 -0.171041,-0.0912 -0.399097,-0.0912 h -5.724173 l -1.322714,6.62497 h -3.010319 l 1.596384,-7.98189 h 10.376486 q 0.786789,0 1.242899,0.35348 0.456109,0.35348 0.604344,0.8894 0.159642,0.52454 0.03421,1.14028 -0.125428,0.61575 -0.490317,1.15168 -0.364888,0.52454 -0.969235,0.878 -0.59294,0.35348 -1.379729,0.35348 H 75.82039 70.666355 q 0.319276,-0.27367 0.592942,-0.5245 0.273665,-0.25087 0.547331,-0.43332 0.285069,-0.18246 0.615747,-0.28508 0.330679,-0.11399 0.752582,-0.11399 h 1.527966 -0.364888 2.063896 z"
           style="font-weight:normal;font-family:CRENZO;-inkscape-font-specification:'CRENZO Italic';fill:#ff0000;stroke-width:0.0979582"
           id="path876" />
        <path
           d="m 78.100899,304.41378 6.784626,-7.9819 h 3.945344 l 3.591862,7.9819 H 88.91069 l -0.843804,-1.88144 h -5.188243 l 0.775385,-0.67276 q 0.70697,-0.59294 1.53937,-0.64994 h 2.269144 l -1.527968,-3.38662 -5.461909,6.57937 z"
           style="font-weight:normal;font-family:CRENZO;-inkscape-font-specification:'CRENZO Italic';fill:#ff0000;stroke-width:0.0979582"
           id="path873" />
      </g>
    </g>
  </g>
</svg>
