<?xml version="1.0" encoding="utf-8"?>
<!-- Svg Vector Icons : http://www.onlinewebfonts.com/icon -->
<!DOCTYPE svg PUBLIC "-//W3C//DTD SVG 1.1//EN" "http://www.w3.org/Graphics/SVG/1.1/DTD/svg11.dtd">
<svg version="1.1" xmlns="http://www.w3.org/2000/svg" xmlns:xlink="http://www.w3.org/1999/xlink" x="0px" y="0px" viewBox="0 0 1000 1000" enable-background="new 0 0 1000 1000" xml:space="preserve">
<metadata> Svg Vector Icons : http://www.onlinewebfonts.com/icon </metadata>
<g><path d="M990,911.6V88.4c0-43.3-35.1-78.4-78.4-78.4H88.4C45.1,10,10,45.1,10,88.4v823.2c0,43.3,35.1,78.4,78.4,78.4h823.2C954.9,990,990,954.9,990,911.6z M50.8,922.6c-1-3.5-1.6-7.2-1.6-11V649.3l440.1-440.1l137.4,137.4L50.8,922.6z M270.4,372.7L157.7,260L368.5,49.2h225.4L270.4,372.7z M130,287.7l112.7,112.7L49.2,593.9V368.5L130,287.7z M949.7,79.1c0.7,3,1.1,6.1,1.1,9.3V351L482.2,819.6L345.7,683.1L949.7,79.1z M711.5,645.8l112.9,112.9L632.1,950.8H406.4L711.5,645.8z M852,730.9L739.2,618l211.6-211.6v225.7L852,730.9z M922.6,50.8L654.4,318.9L517,181.5L649.3,49.2h262.3C915.4,49.2,919.1,49.8,922.6,50.8z M88.4,49.2h224.7L49.2,313.1V88.4C49.2,66.8,66.8,49.2,88.4,49.2z M79.1,949.7L318,710.8l136.5,136.5L351,950.8H88.4C85.2,950.8,82.1,950.4,79.1,949.7z M687.6,950.8l263.2-263.2v224c0,21.6-17.6,39.2-39.2,39.2H687.6z"/></g>
</svg>