<?xml version="1.0" encoding="iso-8859-1"?>
<!-- Generator: Adobe Illustrator 18.1.1, SVG Export Plug-In . SVG Version: 6.00 Build 0)  -->
<svg version="1.1" id="Capa_1" xmlns="http://www.w3.org/2000/svg" xmlns:xlink="http://www.w3.org/1999/xlink" x="0px" y="0px"
	 viewBox="0 0 334.534 334.534" style="enable-background:new 0 0 334.534 334.534;" xml:space="preserve">
<path d="M307.843,318.371c-0.445-0.816-11.275-20.095-43.178-28.354c-6.154-1.593-12.264-2.401-18.162-2.401
	c-1.446,0-2.817,0.062-4.152,0.15l-42.519-185.554c1.96-3.102,2.751-6.944,1.905-10.811l-5.074-23.193
	c-1.102-5.036-4.709-8.867-9.224-10.5c-5.653-18.259-15.146-39.017-32.931-50.009c-12.709-7.856-27.906-9.709-45.164-5.513
	c-13.39,3.256-23.979,11.679-30.623,24.357c-3.62,6.907-5.994,15.08-7.127,23.958c-5.894-2.712-12.011-5.155-18.353-7.299
	c-1.472-0.498-3.092-0.256-4.354,0.649c-1.262,0.905-2.01,2.363-2.01,3.916v208.668c-12.353,7.312-20.659,20.767-20.659,36.134
	c0,23.14,18.825,41.966,41.965,41.966c10.839,0,20.731-4.131,28.186-10.901c22.327-2.259,38.85-7.182,50.552-17.234
	c17.482-15.018,24.293-40.509,24.293-90.919c0-69.618-31.112-126.19-84.836-157.324c0.505-9.296,2.5-17.768,6.003-24.454
	c4.591-8.76,11.524-14.321,20.607-16.529c13.287-3.231,24.215-2.039,33.412,3.646c13.258,8.195,21.021,24.845,25.923,40.264
	c-3.361,3.368-5.001,8.314-3.908,13.307l5.074,23.193c0.981,4.483,3.948,8.01,7.771,9.885l42.349,184.811
	c-1.688,0.785-2.635,1.379-2.752,1.454c-1.108,0.712-1.777,1.938-1.777,3.255v23.236c0,2.137,1.732,3.869,3.869,3.869h81.5
	c1.365,0,2.63-0.72,3.327-1.894C308.47,321.024,308.497,319.569,307.843,318.371z M68.183,318.077
	c-14.065,0-25.508-11.443-25.508-25.509c0-14.065,11.443-25.509,25.508-25.509c14.065,0,25.508,11.443,25.508,25.509
	C93.691,306.633,82.248,318.077,68.183,318.077z M121.637,128.1c2.709-1.279,5.941-0.12,7.22,2.589
	c1.811,3.836,3.453,7.853,4.878,11.938c0.987,2.828-0.505,5.921-3.333,6.908c-0.591,0.207-1.194,0.304-1.787,0.304
	c-2.242,0-4.34-1.401-5.121-3.638c-1.301-3.728-2.796-7.389-4.446-10.882C117.77,132.611,118.929,129.379,121.637,128.1z
	 M117.723,111.853c1.761,2.423,1.224,5.815-1.199,7.576c-0.963,0.7-2.079,1.037-3.184,1.037c-1.677,0-3.33-0.775-4.392-2.235
	C92.664,95.823,73.079,87.693,72.883,87.614c-2.776-1.126-4.113-4.289-2.986-7.064c1.126-2.776,4.289-4.113,7.064-2.986
	C77.879,77.935,99.635,86.965,117.723,111.853z"/>
<g>
</g>
<g>
</g>
<g>
</g>
<g>
</g>
<g>
</g>
<g>
</g>
<g>
</g>
<g>
</g>
<g>
</g>
<g>
</g>
<g>
</g>
<g>
</g>
<g>
</g>
<g>
</g>
<g>
</g>
</svg>
